<?xml version="1.0" encoding="UTF-8"?> <svg xmlns="http://www.w3.org/2000/svg" id="Слой_1" data-name="Слой 1" viewBox="0 0 1850.38 116.06"> <defs> <style>.cls-1{fill:#676767;}</style> </defs> <title>desk</title> <path class="cls-1" d="M33.48,97.1a10,10,0,0,1-4.56,4.42A14.17,14.17,0,0,1,23,102.76a10.43,10.43,0,0,1-7.08-3,24.2,24.2,0,0,1-5.76-9A70.22,70.22,0,0,1,6.3,75.22,151.18,151.18,0,0,1,4.86,52.8a141.19,141.19,0,0,1,1.59-23,67.52,67.52,0,0,1,4.2-15.46q2.61-6,5.85-8.76a10.16,10.16,0,0,1,6.6-2.76,16.3,16.3,0,0,1,5.88.9,12.18,12.18,0,0,1,3.9,2.42l-1.2,10.21q-2.88-3.31-8.22-3.31a7.44,7.44,0,0,0-4.86,2.07,17.45,17.45,0,0,0-4.29,6.76,55.84,55.84,0,0,0-3,12.28A128.26,128.26,0,0,0,10.14,52.8a122.7,122.7,0,0,0,1.08,17.39,59.43,59.43,0,0,0,3,12.42,20.47,20.47,0,0,0,4.44,7.45,7.83,7.83,0,0,0,5.55,2.48,8.78,8.78,0,0,0,4.71-1.24,11.66,11.66,0,0,0,3.39-3.17Z" transform="translate(-4.86 -2.84)"></path> <path class="cls-1" d="M59.72,74.33H44.32L40.14,101.1h-5L51.06,3h2.28l16,98.12H64ZM45.93,64.39h12.3L53.57,35,52.08,20.37H52l-1.49,14.9Z" transform="translate(-4.86 -2.84)"></path> <path class="cls-1" d="M107.76,36.24l0.6-14.49h-0.3L105.78,35,94.86,78.61h-1.5L81.78,34.86,79.62,21.75h-0.3L80.16,36.1v65H75.48V4.5H79.2L92.34,53.9l2,10.76h0.12l1.86-11L108.84,4.5h3.9v96.6h-5V36.24Z" transform="translate(-4.86 -2.84)"></path> <path class="cls-1" d="M121.8,52.8q0-24.15,4.44-37.05T138.9,2.84a10,10,0,0,1,7.68,3.59,27.89,27.89,0,0,1,5.37,10.14,80.18,80.18,0,0,1,3.15,15.73,186.87,186.87,0,0,1,1,20.49q0,24.15-4.47,37.05t-12.75,12.9a9.88,9.88,0,0,1-7.59-3.59A28.13,28.13,0,0,1,126,89a80,80,0,0,1-3.15-15.73A186.57,186.57,0,0,1,121.8,52.8Zm5.28,0q0,8,.69,15.18a79.6,79.6,0,0,0,2.13,12.63,27.68,27.68,0,0,0,3.69,8.69q2.25,3.24,5.31,3.24,5.58,0,8.76-9.73t3.18-30q0-7.87-.69-15.11A77.42,77.42,0,0,0,148,25a28.19,28.19,0,0,0-3.72-8.69q-2.25-3.24-5.37-3.24-5.52,0-8.67,9.73T127.08,52.8Z" transform="translate(-4.86 -2.84)"></path> <path class="cls-1" d="M187,14.71H174.42q-0.6,27.6-1.59,45.88t-3,28.5q-1.32,6.62-3.12,9.66t-3.9,3a4.6,4.6,0,0,1-1.86-.35,5.22,5.22,0,0,1-1.5-1l0.66-9.94a2.18,2.18,0,0,0,1.26.41,2.66,2.66,0,0,0,2-1.52,19.53,19.53,0,0,0,1.95-5.66q0.84-3.73,1.59-9.94T168.27,58q0.57-9.52.93-22.7T169.74,4.5h22.2v96.6h-5V14.71Z" transform="translate(-4.86 -2.84)"></path> <path class="cls-1" d="M203.88,4.5h5v96.6h-5V4.5Z" transform="translate(-4.86 -2.84)"></path> <path class="cls-1" d="M228.6,56.39h-2.82V101.1h-5V4.5h5v45l2.7-1.93L242.58,4.5h5.76L234.3,46l-2.52,4.55,3.06,5.52,15.36,45h-6.3Z" transform="translate(-4.86 -2.84)"></path> <path class="cls-1" d="M269.82,55.42l1.56,12.28h0.3L272.88,55l8-50.51H286L275.4,67.29q-1.62,9.8-2.85,16.35a98.79,98.79,0,0,1-2.49,10.63,17.41,17.41,0,0,1-2.7,5.8,4.45,4.45,0,0,1-3.54,1.73,5.74,5.74,0,0,1-3.15-.76,7.87,7.87,0,0,1-2.19-2.28l1.5-9.52a6,6,0,0,0,2.22,1.93,5,5,0,0,0,1.86.41q1.68,0,2.82-3.93a73.55,73.55,0,0,0,2-11.66L253.32,4.5h5.76Z" transform="translate(-4.86 -2.84)"></path> <path class="cls-1" d="M317.1,26.58a53.05,53.05,0,0,1-.48,7,41.24,41.24,0,0,1-1.44,6.69,22.31,22.31,0,0,1-2.46,5.45,11.08,11.08,0,0,1-3.54,3.59V49.9a10,10,0,0,1,3.45,2.35,14.67,14.67,0,0,1,2.91,4.55,33.18,33.18,0,0,1,2,7,53.65,53.65,0,0,1,.78,9.8A54.19,54.19,0,0,1,317,86.54a30.16,30.16,0,0,1-3.54,8.9,15.16,15.16,0,0,1-5,5.11,11.25,11.25,0,0,1-5.76,1.66h-2.4a21.1,21.1,0,0,1-2.88-.21q-1.5-.21-3-0.55a8.88,8.88,0,0,1-2.64-1V5.33a31.59,31.59,0,0,1,5.16-1.38,35,35,0,0,1,6.42-.55,13.73,13.73,0,0,1,4.77.9,10.08,10.08,0,0,1,4.41,3.45,20.92,20.92,0,0,1,3.27,7.11A44.11,44.11,0,0,1,317.1,26.58ZM299.88,47q1,0,2.46-.14a13.21,13.21,0,0,0,2.4-.41,15.45,15.45,0,0,0,2.7-2.69A18.27,18.27,0,0,0,309.69,40a22.31,22.31,0,0,0,1.56-5,31.1,31.1,0,0,0,.57-6.14,31.44,31.44,0,0,0-.75-7.52,14.46,14.46,0,0,0-2-4.76,7.43,7.43,0,0,0-2.88-2.55,7.72,7.72,0,0,0-3.3-.76,29.16,29.16,0,0,0-3.63.21,8.18,8.18,0,0,0-2.49.62V47h3.12Zm3.3,45.26a7.37,7.37,0,0,0,3.72-1,9.17,9.17,0,0,0,3.18-3.31,19.88,19.88,0,0,0,2.19-5.59,33.45,33.45,0,0,0,.81-7.87,34.06,34.06,0,0,0-1-9.11A14.93,14.93,0,0,0,309.51,60a8.12,8.12,0,0,0-3.57-2.62,12,12,0,0,0-4-.69h-5.22V91.3a3.18,3.18,0,0,0,1.2.41L299.64,92q0.9,0.14,1.86.21C302.13,92.25,302.7,92.27,303.18,92.27Z" transform="translate(-4.86 -2.84)"></path> <path class="cls-1" d="M347.36,74.33H332l-4.18,26.77h-5L338.7,3H341l16,98.12h-5.28Zm-13.79-9.94h12.3L341.21,35l-1.49-14.63h-0.06l-1.49,14.9Z" transform="translate(-4.86 -2.84)"></path> <path class="cls-1" d="M388.26,56.8H368.1v44.3h-5V4.5h5V46.59h20.16V4.5h5v96.6h-5V56.8Z" transform="translate(-4.86 -2.84)"></path> <path class="cls-1" d="M429.18,56.8H409v44.3h-5V4.5h5V46.59h20.16V4.5h5v96.6h-5V56.8Z" transform="translate(-4.86 -2.84)"></path> <path class="cls-1" d="M468.9,101.1h-5V59l-6.18,3L447.29,101.1h-5.88l9.36-34.36,3.66-5.93a12.44,12.44,0,0,1-4-3.38,21.49,21.49,0,0,1-3.18-5.8,41.11,41.11,0,0,1-2.1-8.21,68.73,68.73,0,0,1-.75-10.76,66.68,66.68,0,0,1,1.23-14,28.32,28.32,0,0,1,3.36-9,12.93,12.93,0,0,1,5-4.83,13.13,13.13,0,0,1,6-1.45,24.68,24.68,0,0,1,4.35.41,14.5,14.5,0,0,1,4.53,1.66V101.1Zm-9.12-87.77a7.89,7.89,0,0,0-7,4,18.74,18.74,0,0,0-2.25,5.93,43.63,43.63,0,0,0-.84,9.38,42.84,42.84,0,0,0,.81,9,21.71,21.71,0,0,0,2.19,6.14,9.43,9.43,0,0,0,3.21,3.52,7.46,7.46,0,0,0,3.93,1.1h4.08V14.16a8,8,0,0,0-1.74-.62A11.08,11.08,0,0,0,459.77,13.33Z" transform="translate(-4.86 -2.84)"></path> <path class="cls-1" d="M528.59,36.24l0.6-14.49h-0.3L526.61,35,515.69,78.61h-1.5L502.61,34.86l-2.16-13.11h-0.3L501,36.1v65h-4.68V4.5H500l13.14,49.4,2,10.76h0.12l1.86-11L529.67,4.5h3.9v96.6h-5V36.24Z" transform="translate(-4.86 -2.84)"></path> <path class="cls-1" d="M542.63,52.8q0-24.15,4.44-37.05t12.66-12.9a10,10,0,0,1,7.68,3.59,27.89,27.89,0,0,1,5.37,10.14,80.18,80.18,0,0,1,3.15,15.73,186.87,186.87,0,0,1,1,20.49q0,24.15-4.47,37.05t-12.75,12.9a9.88,9.88,0,0,1-7.59-3.59A28.13,28.13,0,0,1,546.8,89a80,80,0,0,1-3.15-15.73A186.57,186.57,0,0,1,542.63,52.8Zm5.28,0q0,8,.69,15.18a79.6,79.6,0,0,0,2.13,12.63,27.68,27.68,0,0,0,3.69,8.69q2.25,3.24,5.31,3.24,5.58,0,8.76-9.73t3.18-30q0-7.87-.69-15.11A77.42,77.42,0,0,0,568.82,25a28.19,28.19,0,0,0-3.72-8.69q-2.25-3.24-5.37-3.24-5.52,0-8.67,9.73T547.91,52.8Z" transform="translate(-4.86 -2.84)"></path> <path class="cls-1" d="M601.19,4.5H606v45l2.58-1.93L620.75,4.5h5.52l-12.12,42-2.4,4.42,3,5.66,13.38,44.57H622L608.75,56.39H606V101.1h-4.8V54.73l-2.52,1.93L585.41,101.1h-5.76l13.26-43.19,2.88-5.24L593,47.83,580.49,4.5h5.82l12.18,43.33h2.7V4.5Z" transform="translate(-4.86 -2.84)"></path> <path class="cls-1" d="M633.77,4.5h22.86V14.71H638.75v31.6h16.38V56.53H638.75V90.89h18.18V101.1H633.77V4.5Z" transform="translate(-4.86 -2.84)"></path> <path class="cls-1" d="M683.15,4.5H706V14.71H688.13v29a23.48,23.48,0,0,1,2.52-.83,10.84,10.84,0,0,1,2.88-.41,13.41,13.41,0,0,1,5.82,1.31,12.24,12.24,0,0,1,4.86,4.49,26.18,26.18,0,0,1,3.33,8.63,63.92,63.92,0,0,1,1.23,13.73,70.43,70.43,0,0,1-1.26,14.28,35.43,35.43,0,0,1-3.36,9.8,15.82,15.82,0,0,1-4.89,5.66,10.37,10.37,0,0,1-5.85,1.86q-1,0-2.31-.07a20,20,0,0,1-2.7-.34q-1.41-.28-2.76-0.62a9.07,9.07,0,0,1-2.49-1V4.5ZM694,92.27A6.2,6.2,0,0,0,697.67,91a10.39,10.39,0,0,0,3-3.66,22.57,22.57,0,0,0,2-6.14,44.53,44.53,0,0,0,.75-8.69,49.25,49.25,0,0,0-.87-10.28,18.8,18.8,0,0,0-2.31-6.14,7.35,7.35,0,0,0-3.33-3,10.48,10.48,0,0,0-3.93-.76,6.91,6.91,0,0,0-1.26.14l-1.44.28a9.72,9.72,0,0,0-1.32.34c-0.4.14-.7,0.25-0.9,0.34V91.44a3.08,3.08,0,0,0,1.11.41l1.5,0.28a9.72,9.72,0,0,0,1.65.14H694Z" transform="translate(-4.86 -2.84)"></path> <path class="cls-1" d="M728.57,55.42l1.56,12.28h0.3L731.63,55l8-50.51h5.1L734.15,67.29q-1.62,9.8-2.85,16.35a98.79,98.79,0,0,1-2.49,10.63,17.41,17.41,0,0,1-2.7,5.8,4.45,4.45,0,0,1-3.54,1.73,5.74,5.74,0,0,1-3.15-.76,7.87,7.87,0,0,1-2.19-2.28l1.5-9.52A6,6,0,0,0,721,91.16a5,5,0,0,0,1.86.41q1.68,0,2.82-3.93a73.55,73.55,0,0,0,2-11.66L712.07,4.5h5.76Z" transform="translate(-4.86 -2.84)"></path> <path class="cls-1" d="M777.65,14.71H764.57V101.1h-5V14.71H746.51V4.5h31.14V14.71Z" transform="translate(-4.86 -2.84)"></path> <path class="cls-1" d="M810.11,35.69l0.36-11h-0.24L807.65,36,787.37,101.1h-2.94V4.5h5V70.74L789,81.64h0.24l2.64-11.32L812.15,4.5h2.94v96.6h-5V35.69Z" transform="translate(-4.86 -2.84)"></path> <path class="cls-1" d="M842.51,101.1V4.5h5V90.89h13.74V4.5h5V90.89H880V4.5h5v96.6H842.51Z" transform="translate(-4.86 -2.84)"></path> <path class="cls-1" d="M903.53,56.39h-2.82V101.1h-5V4.5h5v45l2.7-1.93L917.51,4.5h5.76L909.23,46l-2.52,4.55,3.06,5.52,15.36,45h-6.3Z" transform="translate(-4.86 -2.84)"></path> <path class="cls-1" d="M934.07,4.5h5v96.6h-5V4.5Z" transform="translate(-4.86 -2.84)"></path> <path class="cls-1" d="M984.35,118.9h-3.42L980,101.1H950.57l-0.9,17.8h-3.48v-28h4.26q0.48-1.52,1.47-7.11t2-16q1-10.42,1.77-26.08T956.45,4.5h22.44V90.89h5.46v28Zm-10.44-28V14.71H961.13q-0.18,15.18-.69,27.32t-1.23,21.46q-0.72,9.32-1.62,16.08t-1.86,11.32h18.18Z" transform="translate(-4.86 -2.84)"></path> <path class="cls-1" d="M1015.43,14.71h-12.54q-0.6,27.6-1.59,45.88t-3,28.5q-1.32,6.62-3.12,9.66t-3.9,3a4.6,4.6,0,0,1-1.86-.35,5.22,5.22,0,0,1-1.5-1l0.66-9.94a2.18,2.18,0,0,0,1.26.41,2.66,2.66,0,0,0,2-1.52,19.51,19.51,0,0,0,2-5.66q0.84-3.73,1.59-9.94T996.74,58q0.57-9.52.93-22.7T998.21,4.5h22.2v96.6h-5V14.71Z" transform="translate(-4.86 -2.84)"></path> <path class="cls-1" d="M1056.89,35.69l0.36-11H1057L1054.43,36l-20.28,65.14h-2.94V4.5h5V70.74l-0.42,10.9H1036l2.64-11.32L1058.93,4.5h2.94v96.6h-5V35.69Z" transform="translate(-4.86 -2.84)"></path> <path class="cls-1" d="M1098,26.58a53.13,53.13,0,0,1-.48,7,41.24,41.24,0,0,1-1.44,6.69,22.34,22.34,0,0,1-2.46,5.45,11.07,11.07,0,0,1-3.54,3.59V49.9a10,10,0,0,1,3.45,2.35,14.69,14.69,0,0,1,2.91,4.55,33.24,33.24,0,0,1,2,7,53.75,53.75,0,0,1,.78,9.8,54.17,54.17,0,0,1-1.35,12.9,30.16,30.16,0,0,1-3.54,8.9,15.17,15.17,0,0,1-5,5.11,11.26,11.26,0,0,1-5.76,1.66h-2.4a21.1,21.1,0,0,1-2.88-.21q-1.5-.21-3-0.55a8.88,8.88,0,0,1-2.64-1V5.33a31.59,31.59,0,0,1,5.16-1.38,35,35,0,0,1,6.42-.55,13.73,13.73,0,0,1,4.77.9,10.09,10.09,0,0,1,4.41,3.45,20.94,20.94,0,0,1,3.27,7.11A44.13,44.13,0,0,1,1098,26.58ZM1080.77,47q1,0,2.46-.14a13.2,13.2,0,0,0,2.4-.41,15.45,15.45,0,0,0,2.7-2.69,18.31,18.31,0,0,0,2.25-3.73,22.34,22.34,0,0,0,1.56-5,31.18,31.18,0,0,0,.57-6.14,31.42,31.42,0,0,0-.75-7.52,14.45,14.45,0,0,0-2-4.76,7.43,7.43,0,0,0-2.88-2.55,7.72,7.72,0,0,0-3.3-.76,29.15,29.15,0,0,0-3.63.21,8.18,8.18,0,0,0-2.49.62V47h3.12Zm3.3,45.26a7.37,7.37,0,0,0,3.72-1,9.17,9.17,0,0,0,3.18-3.31,19.91,19.91,0,0,0,2.19-5.59,33.45,33.45,0,0,0,.81-7.87,34,34,0,0,0-1-9.11A14.92,14.92,0,0,0,1090.4,60a8.12,8.12,0,0,0-3.57-2.62,12,12,0,0,0-4-.69h-5.22V91.3a3.18,3.18,0,0,0,1.2.41l1.68,0.28q0.9,0.14,1.86.21C1083,92.25,1083.59,92.27,1084.07,92.27Z" transform="translate(-4.86 -2.84)"></path> <path class="cls-1" d="M1134,35.69l0.36-11h-0.24L1131.53,36l-20.28,65.14h-2.94V4.5h5V70.74l-0.42,10.9h0.24l2.64-11.32L1136,4.5H1139v96.6h-5V35.69Z" transform="translate(-4.86 -2.84)"></path> <path class="cls-1" d="M1182,36.24l0.6-14.49h-0.3L1180.07,35l-10.92,43.61h-1.5l-11.58-43.75-2.16-13.11h-0.3l0.84,14.35v65h-4.68V4.5h3.72l13.14,49.4,2,10.76h0.12l1.86-11L1183.13,4.5h3.9v96.6h-5V36.24Z" transform="translate(-4.86 -2.84)"></path> <path class="cls-1" d="M1246.19,118.9h-3.42l-0.9-17.8h-29.46l-0.9,17.8H1208v-28h4.26q0.48-1.52,1.47-7.11t2-16q1-10.42,1.77-26.08t0.78-37.19h22.44V90.89h5.46v28Zm-10.44-28V14.71H1223q-0.18,15.18-.69,27.32T1221,63.49q-0.72,9.32-1.62,16.08t-1.86,11.32h18.18Z" transform="translate(-4.86 -2.84)"></path> <path class="cls-1" d="M1277.27,14.71h-12.54q-0.6,27.6-1.59,45.88t-3,28.5q-1.32,6.62-3.12,9.66t-3.9,3a4.6,4.6,0,0,1-1.86-.35,5.22,5.22,0,0,1-1.5-1l0.66-9.94a2.18,2.18,0,0,0,1.26.41,2.66,2.66,0,0,0,2-1.52,19.51,19.51,0,0,0,2-5.66q0.84-3.73,1.59-9.94T1258.58,58q0.57-9.52.93-22.7T1260,4.5h22.2v96.6h-5V14.71Z" transform="translate(-4.86 -2.84)"></path> <path class="cls-1" d="M1317,101.1h-5V59l-6.18,3-10.44,39.05h-5.88l9.36-34.36,3.66-5.93a12.44,12.44,0,0,1-4-3.38,21.48,21.48,0,0,1-3.18-5.8,41.14,41.14,0,0,1-2.1-8.21,68.79,68.79,0,0,1-.75-10.76,66.67,66.67,0,0,1,1.23-14,28.31,28.31,0,0,1,3.36-9,12.93,12.93,0,0,1,5-4.83,13.13,13.13,0,0,1,6-1.45,24.68,24.68,0,0,1,4.35.41A14.49,14.49,0,0,1,1317,5.47V101.1Zm-9.12-87.77a7.89,7.89,0,0,0-7,4,18.74,18.74,0,0,0-2.25,5.93,43.67,43.67,0,0,0-.84,9.38,42.83,42.83,0,0,0,.81,9,21.69,21.69,0,0,0,2.19,6.14,9.42,9.42,0,0,0,3.21,3.52,7.45,7.45,0,0,0,3.93,1.1H1312V14.16a8,8,0,0,0-1.74-.62A11.1,11.1,0,0,0,1307.87,13.33Z" transform="translate(-4.86 -2.84)"></path> <path class="cls-1" d="M1369.72,26.58a53.13,53.13,0,0,1-.48,7,41.24,41.24,0,0,1-1.44,6.69,22.34,22.34,0,0,1-2.46,5.45,11.07,11.07,0,0,1-3.54,3.59V49.9a10,10,0,0,1,3.45,2.35,14.69,14.69,0,0,1,2.91,4.55,33.24,33.24,0,0,1,2,7,53.75,53.75,0,0,1,.78,9.8,54.17,54.17,0,0,1-1.35,12.9,30.16,30.16,0,0,1-3.54,8.9,15.17,15.17,0,0,1-5,5.11,11.26,11.26,0,0,1-5.76,1.66h-2.4A21.1,21.1,0,0,1,1350,102q-1.5-.21-3-0.55a8.88,8.88,0,0,1-2.64-1V5.33a31.59,31.59,0,0,1,5.16-1.38A35,35,0,0,1,1356,3.4a13.73,13.73,0,0,1,4.77.9,10.09,10.09,0,0,1,4.41,3.45,20.94,20.94,0,0,1,3.27,7.11A44.13,44.13,0,0,1,1369.72,26.58ZM1352.5,47q1,0,2.46-.14a13.2,13.2,0,0,0,2.4-.41,15.45,15.45,0,0,0,2.7-2.69,18.31,18.31,0,0,0,2.25-3.73,22.34,22.34,0,0,0,1.56-5,31.18,31.18,0,0,0,.57-6.14,31.42,31.42,0,0,0-.75-7.52,14.45,14.45,0,0,0-2-4.76,7.43,7.43,0,0,0-2.88-2.55,7.72,7.72,0,0,0-3.3-.76,29.15,29.15,0,0,0-3.63.21,8.18,8.18,0,0,0-2.49.62V47h3.12Zm3.3,45.26a7.37,7.37,0,0,0,3.72-1,9.17,9.17,0,0,0,3.18-3.31,19.91,19.91,0,0,0,2.19-5.59,33.45,33.45,0,0,0,.81-7.87,34,34,0,0,0-1-9.11,14.92,14.92,0,0,0-2.58-5.38,8.12,8.12,0,0,0-3.57-2.62,12,12,0,0,0-4-.69h-5.22V91.3a3.18,3.18,0,0,0,1.2.41l1.68,0.28q0.9,0.14,1.86.21C1354.76,92.25,1355.32,92.27,1355.8,92.27Z" transform="translate(-4.86 -2.84)"></path> <path class="cls-1" d="M1400,74.33h-15.4l-4.18,26.77h-5L1391.32,3h2.28l16,98.12h-5.28Zm-13.79-9.94h12.3L1393.84,35l-1.49-14.63h-0.06l-1.49,14.9Z" transform="translate(-4.86 -2.84)"></path> <path class="cls-1" d="M1415.74,101.1V4.5h5V90.89h13.74V4.5h5V90.89h13.74V4.5h5v96.6h-42.42Z" transform="translate(-4.86 -2.84)"></path> <path class="cls-1" d="M1467.22,52.8q0-24.15,4.44-37.05t12.66-12.9A10,10,0,0,1,1492,6.43a27.89,27.89,0,0,1,5.37,10.14,80.14,80.14,0,0,1,3.15,15.73,186.88,186.88,0,0,1,1,20.49q0,24.15-4.47,37.05t-12.75,12.9a9.88,9.88,0,0,1-7.59-3.59A28.12,28.12,0,0,1,1471.39,89a79.91,79.91,0,0,1-3.15-15.73A186.58,186.58,0,0,1,1467.22,52.8Zm5.28,0q0,8,.69,15.18a79.54,79.54,0,0,0,2.13,12.63A27.68,27.68,0,0,0,1479,89.3q2.25,3.24,5.31,3.24,5.58,0,8.76-9.73t3.18-30q0-7.87-.69-15.11a77.42,77.42,0,0,0-2.16-12.7,28.19,28.19,0,0,0-3.72-8.69q-2.25-3.24-5.37-3.24-5.52,0-8.67,9.73T1472.5,52.8Z" transform="translate(-4.86 -2.84)"></path> <path class="cls-1" d="M1533.1,14.71h-17.52V101.1h-5V4.5h22.5V14.71Z" transform="translate(-4.86 -2.84)"></path> <path class="cls-1" d="M1534.6,52.8q0-24.15,4.44-37.05t12.66-12.9a10,10,0,0,1,7.68,3.59,27.89,27.89,0,0,1,5.37,10.14,80.14,80.14,0,0,1,3.15,15.73,186.88,186.88,0,0,1,1,20.49q0,24.15-4.47,37.05t-12.75,12.9a9.88,9.88,0,0,1-7.59-3.59A28.12,28.12,0,0,1,1538.77,89a79.91,79.91,0,0,1-3.15-15.73A186.58,186.58,0,0,1,1534.6,52.8Zm5.28,0q0,8,.69,15.18a79.54,79.54,0,0,0,2.13,12.63,27.68,27.68,0,0,0,3.69,8.69q2.25,3.24,5.31,3.24,5.58,0,8.76-9.73t3.18-30q0-7.87-.69-15.11a77.42,77.42,0,0,0-2.16-12.7,28.19,28.19,0,0,0-3.72-8.69q-2.25-3.24-5.37-3.24-5.52,0-8.67,9.73T1539.88,52.8Z" transform="translate(-4.86 -2.84)"></path> <path class="cls-1" d="M1597.84,55.42V45.76h2.28a9.38,9.38,0,0,0,1.59-.14q0.81-.14,1.56-0.21a3,3,0,0,0,1.23-.35,8.26,8.26,0,0,0,2.94-1.86,11.82,11.82,0,0,0,2.4-3.38,21,21,0,0,0,1.62-4.83,28.65,28.65,0,0,0,.6-6.07,36.59,36.59,0,0,0-.66-7.59,15.46,15.46,0,0,0-1.83-4.9,6.9,6.9,0,0,0-2.7-2.62,7.28,7.28,0,0,0-3.27-.76,13.29,13.29,0,0,0-5.52,1,11,11,0,0,0-3.66,2.55l-1.32-9.11a13.16,13.16,0,0,1,4.32-3.1,15.28,15.28,0,0,1,7-1.59A10.33,10.33,0,0,1,1609.15,4a11.32,11.32,0,0,1,4.14,3.86,22.38,22.38,0,0,1,2.94,7.31,49.7,49.7,0,0,1,1.11,11.39,43.58,43.58,0,0,1-2,13.18q-2,6.28-5.94,9v0.55q4.26,1.38,6.72,7.31t2.46,15.87a59.86,59.86,0,0,1-1.35,13.59,34.22,34.22,0,0,1-3.54,9.45,15.12,15.12,0,0,1-5,5.45,11.08,11.08,0,0,1-5.79,1.73,17.48,17.48,0,0,1-6.51-1,14.2,14.2,0,0,1-4.23-2.55L1593.4,89a11.36,11.36,0,0,0,3.87,2.52,15.31,15.31,0,0,0,6,1.06,6.64,6.64,0,0,0,3.66-1.17,10.44,10.44,0,0,0,3.21-3.59,22.36,22.36,0,0,0,2.28-6,36.75,36.75,0,0,0,.87-8.56q0-8.69-2.64-12.76a10,10,0,0,0-6.9-4.76q-0.72-.13-1.35-0.21a12.12,12.12,0,0,0-1.29-.07h-3.3Z" transform="translate(-4.86 -2.84)"></path> <path class="cls-1" d="M1661,118.9h-3.42l-0.9-17.8h-29.46l-0.9,17.8h-3.48v-28h4.26q0.48-1.52,1.47-7.11t2-16q1-10.42,1.77-26.08t0.78-37.19h22.44V90.89H1661v28Zm-10.44-28V14.71H1637.8q-0.18,15.18-.69,27.32t-1.23,21.46q-0.72,9.32-1.62,16.08t-1.86,11.32h18.18Z" transform="translate(-4.86 -2.84)"></path> <path class="cls-1" d="M1665.28,52.8q0-24.15,4.44-37.05t12.66-12.9a10,10,0,0,1,7.68,3.59,27.89,27.89,0,0,1,5.37,10.14,80.14,80.14,0,0,1,3.15,15.73,186.88,186.88,0,0,1,1,20.49q0,24.15-4.47,37.05t-12.75,12.9a9.88,9.88,0,0,1-7.59-3.59A28.12,28.12,0,0,1,1669.45,89a79.91,79.91,0,0,1-3.15-15.73A186.58,186.58,0,0,1,1665.28,52.8Zm5.28,0q0,8,.69,15.18a79.54,79.54,0,0,0,2.13,12.63,27.68,27.68,0,0,0,3.69,8.69q2.25,3.24,5.31,3.24,5.58,0,8.76-9.73t3.18-30q0-7.87-.69-15.11a77.42,77.42,0,0,0-2.16-12.7,28.19,28.19,0,0,0-3.72-8.69q-2.25-3.24-5.37-3.24-5.52,0-8.67,9.73T1670.56,52.8Z" transform="translate(-4.86 -2.84)"></path> <path class="cls-1" d="M1708.66,5.47a15.1,15.1,0,0,1,4.92-1.66,33.61,33.61,0,0,1,5.22-.41,14,14,0,0,1,5.61,1.24,12.77,12.77,0,0,1,5.19,4.55,27.64,27.64,0,0,1,3.81,9.11,61.51,61.51,0,0,1,1.47,14.77A68.53,68.53,0,0,1,1733.5,48a33.82,33.82,0,0,1-3.66,9.87,14.73,14.73,0,0,1-5.22,5.45,12.2,12.2,0,0,1-6.06,1.66h-1c-0.46,0-.94,0-1.44-0.07s-1-.11-1.47-0.21a4.78,4.78,0,0,1-1-.28V101.1h-5V5.47Zm10.26,7.87q-1.56,0-3,.14a5,5,0,0,0-2.28.69v40a1.63,1.63,0,0,0,1,.34l1.38,0.14c0.48,0,.94.07,1.38,0.07h1a9.85,9.85,0,0,0,4-.9,9,9,0,0,0,3.63-3.24,19.52,19.52,0,0,0,2.61-6.62,49.62,49.62,0,0,0,1-10.9,40.57,40.57,0,0,0-.93-9.45,19.08,19.08,0,0,0-2.46-6.07,9.3,9.3,0,0,0-3.45-3.24A8.5,8.5,0,0,0,1718.92,13.33Z" transform="translate(-4.86 -2.84)"></path> <path class="cls-1" d="M1740,52.8q0-24.15,4.44-37.05t12.66-12.9a10,10,0,0,1,7.68,3.59,27.89,27.89,0,0,1,5.37,10.14,80.14,80.14,0,0,1,3.15,15.73,186.88,186.88,0,0,1,1,20.49q0,24.15-4.47,37.05t-12.75,12.9a9.88,9.88,0,0,1-7.59-3.59A28.12,28.12,0,0,1,1744.21,89a79.91,79.91,0,0,1-3.15-15.73A186.58,186.58,0,0,1,1740,52.8Zm5.28,0q0,8,.69,15.18a79.54,79.54,0,0,0,2.13,12.63,27.68,27.68,0,0,0,3.69,8.69q2.25,3.24,5.31,3.24,5.58,0,8.76-9.73t3.18-30q0-7.87-.69-15.11a77.42,77.42,0,0,0-2.16-12.7,28.19,28.19,0,0,0-3.72-8.69q-2.25-3.24-5.37-3.24-5.52,0-8.67,9.73T1745.32,52.8Z" transform="translate(-4.86 -2.84)"></path> <path class="cls-1" d="M1808.74,26.58a53.13,53.13,0,0,1-.48,7,41.24,41.24,0,0,1-1.44,6.69,22.34,22.34,0,0,1-2.46,5.45,11.07,11.07,0,0,1-3.54,3.59V49.9a10,10,0,0,1,3.45,2.35,14.69,14.69,0,0,1,2.91,4.55,33.24,33.24,0,0,1,2,7,53.75,53.75,0,0,1,.78,9.8,54.17,54.17,0,0,1-1.35,12.9,30.16,30.16,0,0,1-3.54,8.9,15.17,15.17,0,0,1-5,5.11,11.26,11.26,0,0,1-5.76,1.66h-2.4a21.1,21.1,0,0,1-2.88-.21q-1.5-.21-3-0.55a8.88,8.88,0,0,1-2.64-1V5.33a31.59,31.59,0,0,1,5.16-1.38A35,35,0,0,1,1795,3.4a13.73,13.73,0,0,1,4.77.9,10.09,10.09,0,0,1,4.41,3.45,20.94,20.94,0,0,1,3.27,7.11A44.13,44.13,0,0,1,1808.74,26.58ZM1791.52,47q1,0,2.46-.14a13.2,13.2,0,0,0,2.4-.41,15.45,15.45,0,0,0,2.7-2.69,18.31,18.31,0,0,0,2.25-3.73,22.34,22.34,0,0,0,1.56-5,31.18,31.18,0,0,0,.57-6.14,31.42,31.42,0,0,0-.75-7.52,14.45,14.45,0,0,0-2-4.76,7.43,7.43,0,0,0-2.88-2.55,7.72,7.72,0,0,0-3.3-.76,29.15,29.15,0,0,0-3.63.21,8.18,8.18,0,0,0-2.49.62V47h3.12Zm3.3,45.26a7.37,7.37,0,0,0,3.72-1,9.17,9.17,0,0,0,3.18-3.31,19.91,19.91,0,0,0,2.19-5.59,33.45,33.45,0,0,0,.81-7.87,34,34,0,0,0-1-9.11,14.92,14.92,0,0,0-2.58-5.38,8.12,8.12,0,0,0-3.57-2.62,12,12,0,0,0-4-.69h-5.22V91.3a3.18,3.18,0,0,0,1.2.41l1.68,0.28q0.9,0.14,1.86.21C1793.78,92.25,1794.34,92.27,1794.82,92.27Z" transform="translate(-4.86 -2.84)"></path> <path class="cls-1" d="M1816.36,10.43a11.51,11.51,0,0,1,.88-5,2.61,2.61,0,0,1,2.27-1.79q1.69,0,2.75,2.42a18.92,18.92,0,0,1,1.06,7.25,46.48,46.48,0,0,1-.58,7.87,33.91,33.91,0,0,1-1.4,5.59,17.46,17.46,0,0,1-1.73,3.66,9.08,9.08,0,0,1-1.58,1.93l-1.5-4.69a12,12,0,0,0,2.18-4.14,22,22,0,0,0,.79-6.49,1.34,1.34,0,0,1-.67.14q-1.15,0-1.82-1.86A14.87,14.87,0,0,1,1816.36,10.43Z" transform="translate(-4.86 -2.84)"></path> <path class="cls-1" d="M1855.24,101.1h-5V59l-6.18,3-10.44,39.05h-5.88l9.36-34.36,3.66-5.93a12.44,12.44,0,0,1-4-3.38,21.48,21.48,0,0,1-3.18-5.8,41.14,41.14,0,0,1-2.1-8.21,68.79,68.79,0,0,1-.75-10.76,66.67,66.67,0,0,1,1.23-14,28.31,28.31,0,0,1,3.36-9,12.93,12.93,0,0,1,5-4.83,13.13,13.13,0,0,1,6-1.45,24.68,24.68,0,0,1,4.35.41,14.49,14.49,0,0,1,4.53,1.66V101.1Zm-9.12-87.77a7.89,7.89,0,0,0-7,4,18.74,18.74,0,0,0-2.25,5.93,43.67,43.67,0,0,0-.84,9.38,42.83,42.83,0,0,0,.81,9,21.69,21.69,0,0,0,2.19,6.14,9.42,9.42,0,0,0,3.21,3.52,7.45,7.45,0,0,0,3.93,1.1h4.08V14.16a8,8,0,0,0-1.74-.62A11.1,11.1,0,0,0,1846.12,13.33Z" transform="translate(-4.86 -2.84)"></path> </svg> 